<?xml version="1.0" ?><svg viewBox="0 0 32 32" xmlns="http://www.w3.org/2000/svg"><defs><style>.cls-1{fill:#ff9800;}.cls-2{fill:#4a148c;}.cls-3{fill:#f5f5f5;}.cls-4{fill:#9c27b0;}</style></defs><title/><g id="dat"><path class="cls-1" d="M25,8.29v18A1.75,1.75,0,0,1,23.22,28H10.78A1.75,1.75,0,0,1,9,26.29V5.85A1.93,1.93,0,0,1,11,4H22Z"/><rect class="cls-2" height="6" width="18" x="7" y="13"/><path class="cls-3" d="M14.29,16.45a.8.8,0,0,1-.13.46.88.88,0,0,1-.4.33,1.41,1.41,0,0,1-.61.12,1.48,1.48,0,0,1-.7-.16.92.92,0,0,1-.31-.31.75.75,0,0,1-.13-.38.25.25,0,0,1,.08-.18.24.24,0,0,1,.18-.07.21.21,0,0,1,.16.06.45.45,0,0,1,.11.17.71.71,0,0,0,.12.23.5.5,0,0,0,.17.15.68.68,0,0,0,.31.06.7.7,0,0,0,.42-.12.38.38,0,0,0,.16-.3.3.3,0,0,0-.09-.23.55.55,0,0,0-.22-.14L13,16a2.44,2.44,0,0,1-.52-.17.78.78,0,0,1-.33-.26.69.69,0,0,1-.12-.41.68.68,0,0,1,.13-.42.78.78,0,0,1,.37-.29,1.67,1.67,0,0,1,.58-.1,1.52,1.52,0,0,1,.45.07.88.88,0,0,1,.32.17.77.77,0,0,1,.19.23.53.53,0,0,1,.06.23.29.29,0,0,1-.08.19.25.25,0,0,1-.18.08.17.17,0,0,1-.15,0,.44.44,0,0,1-.11-.16.86.86,0,0,0-.19-.25.54.54,0,0,0-.35-.09.7.7,0,0,0-.37.09.3.3,0,0,0-.13.24.24.24,0,0,0,0,.15.47.47,0,0,0,.13.11l.17.07.28.07a3.68,3.68,0,0,1,.43.13,1.34,1.34,0,0,1,.34.16.72.72,0,0,1,.21.25A.81.81,0,0,1,14.29,16.45Z"/><path class="cls-3" d="M17.08,17l.28.17a.62.62,0,0,1,.2.13.17.17,0,0,1,.05.13.19.19,0,0,1-.06.13.18.18,0,0,1-.14.06.41.41,0,0,1-.16,0A1.38,1.38,0,0,1,17,17.4c-.09,0-.18-.12-.28-.19a1.48,1.48,0,0,1-.7.15,1.55,1.55,0,0,1-.59-.11,1.1,1.1,0,0,1-.45-.31,1.29,1.29,0,0,1-.27-.47,2.08,2.08,0,0,1,0-1.21,1.47,1.47,0,0,1,.28-.47,1,1,0,0,1,.44-.29,1.5,1.5,0,0,1,.58-.11,1.57,1.57,0,0,1,.77.18,1.27,1.27,0,0,1,.48.52,1.73,1.73,0,0,1,.16.78A1.49,1.49,0,0,1,17.08,17Zm-.45-.32a.92.92,0,0,0,.18-.32,1.51,1.51,0,0,0,.06-.44,1.35,1.35,0,0,0-.11-.55.72.72,0,0,0-.29-.35.77.77,0,0,0-.43-.11.87.87,0,0,0-.32.06.67.67,0,0,0-.25.19.88.88,0,0,0-.17.32,1.51,1.51,0,0,0-.06.44,1.1,1.1,0,0,0,.23.76.75.75,0,0,0,.58.26.8.8,0,0,0,.3-.06,1.57,1.57,0,0,0-.23-.13,1.21,1.21,0,0,1-.19-.11.12.12,0,0,1,0-.1.13.13,0,0,1,0-.11.14.14,0,0,1,.1,0A1.39,1.39,0,0,1,16.63,16.63Z"/><path class="cls-3" d="M18.52,14.75v2.08h1.17a.29.29,0,0,1,.22.07.22.22,0,0,1,0,.34.34.34,0,0,1-.22.07h-1.4a.37.37,0,0,1-.27-.09.38.38,0,0,1-.08-.27v-2.2a.36.36,0,0,1,.08-.27.26.26,0,0,1,.21-.09.29.29,0,0,1,.21.09A.41.41,0,0,1,18.52,14.75Z"/><path class="cls-3" d="M9,24H9a1,1,0,0,1,1,1v3a0,0,0,0,1,0,0H8a0,0,0,0,1,0,0V25A1,1,0,0,1,9,24Z" transform="translate(35 17) rotate(90)"/><path class="cls-3" d="M9,20H9a1,1,0,0,1,1,1v3a0,0,0,0,1,0,0H8a0,0,0,0,1,0,0V21A1,1,0,0,1,9,20Z" transform="translate(31 13) rotate(90)"/><path class="cls-3" d="M9,8H9a1,1,0,0,1,1,1v3a0,0,0,0,1,0,0H8a0,0,0,0,1,0,0V9A1,1,0,0,1,9,8Z" transform="translate(19 1) rotate(90)"/><path class="cls-3" d="M9,4H9a1,1,0,0,1,1,1V8a0,0,0,0,1,0,0H8A0,0,0,0,1,8,8V5A1,1,0,0,1,9,4Z" transform="translate(15 -3) rotate(90)"/><path class="cls-4" d="M23,31H9a3,3,0,0,1-3-3V4A3,3,0,0,1,7.5,1.41,2.92,2.92,0,0,1,9,1H20a1,1,0,0,1,.71.29l5,5A1,1,0,0,1,26,7V23a1,1,0,0,1-2,0V7.41L19.59,3H9a1,1,0,0,0-.49.13A1,1,0,0,0,8,4V28a1,1,0,0,0,.5.87A1.09,1.09,0,0,0,9,29H23a1,1,0,0,0,1-1V27a1,1,0,0,1,2,0v1A3,3,0,0,1,23,31Z"/><path class="cls-4" d="M25,8H22a3,3,0,0,1-3-3V2a1,1,0,0,1,.62-.92,1,1,0,0,1,1.09.21l5,5a1,1,0,0,1,.21,1.09A1,1,0,0,1,25,8ZM21,4.41V5a1,1,0,0,0,1,1h.59Z"/></g></svg>